<?xml version="1.0" encoding="iso-8859-1"?>
<!-- Generator: Adobe Illustrator 19.0.0, SVG Export Plug-In . SVG Version: 6.00 Build 0)  -->
<svg version="1.1" id="Layer_1" xmlns="http://www.w3.org/2000/svg" xmlns:xlink="http://www.w3.org/1999/xlink" x="0px" y="0px"
	 viewBox="0 0 512.002 512.002" style="enable-background:new 0 0 512.002 512.002;" xml:space="preserve">
<circle style="fill:#71E2EF;" cx="256.001" cy="256" r="256"/>
<path style="fill:#38C6D9;" d="M511.265,275.522L386.156,150.411l-169.889,84.816l-67.148-67.146l-23.273,20.795l90.452,90.241
	L93.64,361.42l150.718,150.306c3.862,0.172,7.74,0.276,11.643,0.276C390.819,512,501.292,407.785,511.265,275.522z"/>
<polygon style="fill:#FFFFFF;" points="369.779,369.778 142.223,369.778 142.223,170.667 256.001,113.778 369.779,170.667 "/>
<polygon style="fill:#D0D1D3;" points="369.779,170.667 256.001,113.778 255.427,114.066 255.427,369.778 369.779,369.778 "/>
<polygon style="fill:#FF5419;" points="256.001,85.333 125.846,150.411 125.846,188.876 256.001,123.799 386.156,188.876 
	386.156,150.411 "/>
<polygon style="fill:#C92F00;" points="256.001,85.333 255.427,85.621 255.427,124.085 256.001,123.799 386.156,188.876 
	386.156,150.411 "/>
<g>
	<path style="fill:#477F3C;" d="M170.668,369.778c15.71,0,28.444-12.734,28.444-28.444s-12.734-28.444-28.444-28.444
		c0-15.71-12.734-28.444-28.444-28.444c-10.65,0-19.918,5.863-24.793,14.527c-9.004,1.472-16.096,8.564-17.568,17.568
		c-8.664,4.875-14.527,14.143-14.527,24.793c0,15.71,12.734,28.444,28.444,28.444H170.668z"/>
	<path style="fill:#477F3C;" d="M341.334,369.778c-15.71,0-28.444-12.734-28.444-28.444s12.734-28.444,28.444-28.444
		c0-15.71,12.734-28.444,28.444-28.444c10.65,0,19.918,5.863,24.793,14.527c9.004,1.472,16.096,8.564,17.568,17.568
		c8.664,4.875,14.527,14.143,14.527,24.793c0,15.71-12.734,28.444-28.444,28.444H341.334z"/>
</g>
<g>
	<path style="fill:#2E5E24;" d="M170.668,312.889c0-15.71-12.734-28.444-28.444-28.444c-0.048,0-0.095,0.005-0.143,0.005v85.328
		h28.588c15.71,0,28.444-12.734,28.444-28.444S186.377,312.889,170.668,312.889z"/>
	<path style="fill:#2E5E24;" d="M412.14,316.54c-1.472-9.004-8.564-16.096-17.568-17.568c-4.875-8.664-14.143-14.527-24.793-14.527
		c-0.048,0-0.095,0.007-0.143,0.007v85.326h28.588c15.71,0,28.444-12.734,28.444-28.444
		C426.668,330.683,420.805,321.415,412.14,316.54z"/>
</g>
<rect x="227.556" y="312.889" style="fill:#E09112;" width="56.889" height="56.889"/>
<rect x="255.432" y="312.889" style="fill:#FF5419;" width="29.018" height="56.889"/>
<rect x="166.996" y="184.889" style="fill:#D0D1D3;" width="39.65" height="39.65"/>
<rect x="163.548" y="218.936" style="fill:#EAA22F;" width="46.545" height="8.62"/>
<rect x="305.339" y="184.889" style="fill:#A6A8AA;" width="39.65" height="39.65"/>
<rect x="301.891" y="218.936" style="fill:#E09112;" width="46.545" height="8.62"/>
<g>
	<rect x="236.176" y="184.889" style="fill:#D0D1D3;" width="39.65" height="39.65"/>
	<rect x="166.996" y="241.778" style="fill:#D0D1D3;" width="39.65" height="39.65"/>
</g>
<rect x="163.548" y="275.825" style="fill:#EAA22F;" width="46.545" height="8.62"/>
<rect x="305.339" y="241.778" style="fill:#A6A8AA;" width="39.65" height="39.65"/>
<rect x="301.891" y="275.825" style="fill:#E09112;" width="46.545" height="8.62"/>
<rect x="236.176" y="241.778" style="fill:#D0D1D3;" width="39.65" height="39.65"/>
<g>
	<rect x="255.432" y="184.889" style="fill:#A6A8AA;" width="20.399" height="39.65"/>
	<rect x="255.432" y="241.778" style="fill:#A6A8AA;" width="20.399" height="39.65"/>
</g>
<g>
	<rect x="232.728" y="218.936" style="fill:#EAA22F;" width="46.545" height="8.62"/>
	<rect x="232.728" y="275.825" style="fill:#EAA22F;" width="46.545" height="8.62"/>
</g>
<g>
	<rect x="255.432" y="218.936" style="fill:#E09112;" width="23.847" height="8.62"/>
	<rect x="255.432" y="275.825" style="fill:#E09112;" width="23.847" height="8.62"/>
</g>
<g>
</g>
<g>
</g>
<g>
</g>
<g>
</g>
<g>
</g>
<g>
</g>
<g>
</g>
<g>
</g>
<g>
</g>
<g>
</g>
<g>
</g>
<g>
</g>
<g>
</g>
<g>
</g>
<g>
</g>
</svg>
